HIERARCHY
ROOT m_avg_root
{
	OFFSET 0.000000 0.000000 0.000000
	CHANNELS 6 Xposition Yposition Zposition Xrotation Yrotation Zrotation
	JOINT m_avg_Pelvis
	{
		OFFSET -0.002174 0.972724 0.028584
		CHANNELS 6 Xposition Yposition Zposition Xrotation Yrotation Zrotation
		JOINT m_avg_L_Hip
		{
			OFFSET 0.058581 -0.082280 -0.017664
			CHANNELS 6 Xposition Yposition Zposition Xrotation Yrotation Zrotation
			JOINT m_avg_L_Knee
			{
				OFFSET 0.043451 -0.386469 0.008037
				CHANNELS 6 Xposition Yposition Zposition Xrotation Yrotation Zrotation
				JOINT m_avg_L_Ankle
				{
					OFFSET -0.014790 -0.426874 -0.037428
					CHANNELS 6 Xposition Yposition Zposition Xrotation Yrotation Zrotation
					JOINT m_avg_L_Foot
					{
						OFFSET 0.041054 -0.060286 0.122042
						CHANNELS 6 Xposition Yposition Zposition Xrotation Yrotation Zrotation
						End Site
						{
							OFFSET 0.000000 0.142177 0.000000
						}
					}
				}
			}
		}
		JOINT m_avg_R_Hip
		{
			OFFSET -0.060310 -0.090513 -0.013543
			CHANNELS 6 Xposition Yposition Zposition Xrotation Yrotation Zrotation
			JOINT m_avg_R_Knee
			{
				OFFSET -0.043257 -0.383688 -0.004843
				CHANNELS 6 Xposition Yposition Zposition Xrotation Yrotation Zrotation
				JOINT m_avg_R_Ankle
				{
					OFFSET 0.019056 -0.420046 -0.034562
					CHANNELS 6 Xposition Yposition Zposition Xrotation Yrotation Zrotation
					JOINT m_avg_R_Foot
					{
						OFFSET -0.034840 -0.062106 0.130323
						CHANNELS 6 Xposition Yposition Zposition Xrotation Yrotation Zrotation
						End Site
						{
							OFFSET 0.000000 0.148510 0.000000
						}
					}
				}
			}
		}
		JOINT m_avg_Spine1
		{
			OFFSET 0.004439 0.124404 -0.038385
			CHANNELS 6 Xposition Yposition Zposition Xrotation Yrotation Zrotation
			JOINT m_avg_Spine2
			{
				OFFSET 0.004488 0.137956 0.026820
				CHANNELS 6 Xposition Yposition Zposition Xrotation Yrotation Zrotation
				JOINT m_avg_Spine3
				{
					OFFSET -0.002265 0.056032 0.002855
					CHANNELS 6 Xposition Yposition Zposition Xrotation Yrotation Zrotation
					JOINT m_avg_Neck
					{
						OFFSET -0.013390 0.211635 -0.033468
						CHANNELS 6 Xposition Yposition Zposition Xrotation Yrotation Zrotation
						JOINT m_avg_Head
						{
							OFFSET 0.010113 0.088937 0.050410
							CHANNELS 6 Xposition Yposition Zposition Xrotation Yrotation Zrotation
							End Site
							{
								OFFSET 0.000000 0.102729 0.000000
							}
						}
					}
					JOINT m_avg_L_Collar
					{
						OFFSET 0.071702 0.114000 -0.018898
						CHANNELS 6 Xposition Yposition Zposition Xrotation Yrotation Zrotation
						JOINT m_avg_L_Shoulder
						{
							OFFSET 0.122921 0.045205 -0.019046
							CHANNELS 6 Xposition Yposition Zposition Xrotation Yrotation Zrotation
							JOINT m_avg_L_Elbow
							{
								OFFSET 0.255332 -0.015649 -0.022946
								CHANNELS 6 Xposition Yposition Zposition Xrotation Yrotation Zrotation
								JOINT m_avg_L_Wrist
								{
									OFFSET 0.265709 0.012698 -0.007375
									CHANNELS 6 Xposition Yposition Zposition Xrotation Yrotation Zrotation
									JOINT m_avg_L_Hand
									{
										OFFSET 0.086691 -0.010636 -0.015594
										CHANNELS 6 Xposition Yposition Zposition Xrotation Yrotation Zrotation
										End Site
										{
											OFFSET 0.000000 0.088722 0.000000
										}
									}
								}
							}
						}
					}
					JOINT m_avg_R_Collar
					{
						OFFSET -0.082954 0.112472 -0.023707
						CHANNELS 6 Xposition Yposition Zposition Xrotation Yrotation Zrotation
						JOINT m_avg_R_Shoulder
						{
							OFFSET -0.113228 0.046853 -0.008472
							CHANNELS 6 Xposition Yposition Zposition Xrotation Yrotation Zrotation
							JOINT m_avg_R_Elbow
							{
								OFFSET -0.260127 -0.014369 -0.031269
								CHANNELS 6 Xposition Yposition Zposition Xrotation Yrotation Zrotation
								JOINT m_avg_R_Wrist
								{
									OFFSET -0.269108 0.006794 -0.006027
									CHANNELS 6 Xposition Yposition Zposition Xrotation Yrotation Zrotation
									JOINT m_avg_R_Hand
									{
										OFFSET -0.088754 -0.008652 -0.010107
										CHANNELS 6 Xposition Yposition Zposition Xrotation Yrotation Zrotation
										End Site
										{
											OFFSET 0.000000 0.089745 0.000000
										}
									}
								}
							}
						}
					}
				}
			}
		}
	}
}
MOTION
Frames: 4
Frame Time: 0.041667
-0.195672 -0.090931 2.579474 -0.000000 0.000000 -0.000000 -0.197846 0.881792 2.608058 -175.463544 -4.074341 0.348427 0.058581 -0.082280 -0.017664 -21.890010 -6.714540 -3.672871 0.043451 -0.386469 0.008037 31.013154 -9.184934 -2.509364 -0.014790 -0.426874 -0.037428 -5.619802 5.444901 -6.832592 0.041054 -0.060286 0.122043 -16.567845 3.920519 11.917180 -0.060310 -0.090513 -0.013542 -13.588905 4.913427 3.483544 -0.043257 -0.383688 -0.004843 40.212343 3.637862 -0.083524 0.019056 -0.420045 -0.034562 -8.274652 -10.465806 8.722310 -0.034840 -0.062105 0.130323 -11.294658 7.719593 -12.609771 0.004439 0.124403 -0.038385 7.091572 2.995533 -0.049888 0.004488 0.137956 0.026821 -6.207055 0.880210 3.229037 -0.002265 0.056032 0.002855 5.966353 2.285633 0.569061 -0.013390 0.211636 -0.033468 -14.201298 4.018644 2.564305 0.010113 0.088937 0.050410 10.099746 -4.052898 -1.738082 0.071702 0.114000 -0.018898 -8.021922 -5.189295 -7.229902 0.122921 0.045205 -0.019046 -8.123296 -13.751207 -42.619725 0.255332 -0.015649 -0.022946 67.045294 -70.982010 92.231255 0.265709 0.012698 -0.007375 -3.267327 -6.197141 14.025506 0.086691 -0.010636 -0.015594 -5.984822 -4.335910 -11.849169 -0.082954 0.112472 -0.023708 -4.580245 8.421098 19.694878 -0.113228 0.046853 -0.008472 -3.023587 17.736898 54.584864 -0.260127 -0.014369 -0.031270 20.160253 61.953709 -42.009031 -0.269108 0.006794 -0.006027 -3.887002 5.878429 -11.447198 -0.088754 -0.008652 -0.010107 -5.102969 6.065072 11.815270 
-0.195672 -0.090931 2.579474 -0.000000 0.000000 -0.000000 -0.197846 0.881792 2.608058 -175.463544 -4.074341 0.348427 0.058581 -0.082280 -0.017664 -21.697682 -6.715554 -3.015083 0.043452 -0.386470 0.008037 30.713943 -9.407051 -2.473093 -0.014790 -0.426874 -0.037428 -5.382746 5.347811 -6.792087 0.041055 -0.060286 0.122042 -16.560402 3.973294 11.804286 -0.060310 -0.090513 -0.013542 -14.424588 4.678975 4.654019 -0.043257 -0.383688 -0.004843 39.785842 3.077794 0.110380 0.019056 -0.420045 -0.034561 -8.242969 -10.687947 8.701570 -0.034840 -0.062106 0.130323 -11.143724 7.690977 -12.452563 0.004439 0.124403 -0.038385 7.062031 3.105488 -0.466943 0.004488 0.137957 0.026821 -6.276913 1.053877 3.267609 -0.002265 0.056032 0.002855 5.940649 2.382291 1.055761 -0.013390 0.211635 -0.033467 -14.193168 3.585192 3.241955 0.010113 0.088937 0.050410 10.311185 -4.587319 -0.880212 0.071702 0.114000 -0.018897 -8.289334 -5.083758 -7.028191 0.122921 0.045205 -0.019046 -8.792748 -14.966160 -43.172659 0.255332 -0.015649 -0.022947 70.277695 -70.888976 95.709733 0.265708 0.012698 -0.007375 -3.376524 -6.129887 13.932241 0.086691 -0.010636 -0.015594 -5.897045 -4.292961 -11.783574 -0.082954 0.112472 -0.023707 -4.339751 8.385370 20.097301 -0.113228 0.046853 -0.008472 -3.042619 17.615683 55.709618 -0.260127 -0.014370 -0.031269 16.727014 59.843652 -38.413131 -0.269109 0.006794 -0.006027 -3.838398 5.646175 -11.084471 -0.088754 -0.008652 -0.010107 -5.071258 6.123092 11.737968 
-0.195672 -0.090931 2.579474 -0.000000 0.000000 -0.000000 -0.197846 0.881792 2.608058 -175.463544 -4.074341 0.348427 0.058581 -0.082280 -0.017664 -20.996826 -6.620837 -2.195949 0.043452 -0.386469 0.008038 30.461909 -9.689707 -2.483520 -0.014791 -0.426874 -0.037428 -4.910480 5.273353 -6.782611 0.041055 -0.060286 0.122042 -16.521046 3.970567 11.691132 -0.060310 -0.090513 -0.013542 -14.938925 4.379736 5.470524 -0.043257 -0.383688 -0.004843 39.155514 2.647482 0.367921 0.019055 -0.420046 -0.034561 -8.319818 -10.781296 8.611754 -0.034840 -0.062105 0.130323 -11.041908 7.659312 -12.250484 0.004439 0.124404 -0.038385 6.823917 3.226305 -0.973401 0.004488 0.137956 0.026820 -6.326630 1.231900 3.138221 -0.002265 0.056032 0.002854 5.736750 2.473761 1.270546 -0.013390 0.211636 -0.033468 -13.983870 3.092812 4.023070 0.010113 0.088937 0.050410 10.580312 -4.969598 -0.001587 0.071702 0.114000 -0.018898 -8.599416 -5.043195 -7.001769 0.122921 0.045205 -0.019046 -9.839434 -16.419223 -44.120488 0.255332 -0.015649 -0.022946 70.672623 -70.856335 96.098890 0.265709 0.012698 -0.007375 -3.421186 -6.011755 13.668147 0.086691 -0.010636 -0.015594 -5.804083 -4.255435 -11.689834 -0.082954 0.112473 -0.023707 -3.917723 8.380875 20.346138 -0.113228 0.046853 -0.008472 -2.999610 17.707306 56.982878 -0.260128 -0.014369 -0.031269 14.011150 57.583030 -35.106896 -0.269109 0.006794 -0.006027 -3.726152 5.382680 -10.569099 -0.088754 -0.008651 -0.010107 -5.033718 6.167903 11.626650 
-0.195672 -0.090931 2.579474 -0.000000 0.000000 -0.000000 -0.197846 0.881792 2.608058 -175.463544 -4.074341 0.348427 0.058581 -0.082280 -0.017664 -19.837465 -6.488272 -1.276107 0.043451 -0.386469 0.008036 30.261027 -9.971071 -2.533156 -0.014790 -0.426875 -0.037429 -4.324676 5.207913 -6.789759 0.041054 -0.060286 0.122043 -16.415525 3.930390 11.581879 -0.060310 -0.090513 -0.013542 -15.309138 4.046066 6.005880 -0.043257 -0.383688 -0.004844 38.563453 2.359677 0.765258 0.019056 -0.420045 -0.034562 -8.391400 -10.747862 8.523627 -0.034840 -0.062105 0.130324 -10.954733 7.662458 -12.044146 0.004439 0.124404 -0.038385 6.460583 3.329069 -1.527439 0.004488 0.137956 0.026820 -6.346362 1.348721 2.942055 -0.002265 0.056032 0.002855 5.420389 2.520669 1.305671 -0.013390 0.211636 -0.033467 -13.679096 2.691320 4.777792 0.010113 0.088938 0.050409 10.861787 -5.222386 0.769784 0.071703 0.114000 -0.018898 -8.937594 -5.098448 -7.009324 0.122921 0.045205 -0.019046 -11.217688 -17.834411 -45.147988 0.255332 -0.015649 -0.022946 67.831667 -70.919562 93.145783 0.265709 0.012698 -0.007375 -3.324942 -5.861884 13.311783 0.086691 -0.010636 -0.015594 -5.727681 -4.224118 -11.569056 -0.082954 0.112473 -0.023707 -3.403333 8.444670 20.525543 -0.113229 0.046853 -0.008472 -2.883167 18.035362 58.289873 -0.260127 -0.014369 -0.031269 12.294778 55.517328 -32.388791 -0.269109 0.006794 -0.006027 -3.589926 5.136324 -9.959446 -0.088754 -0.008652 -0.010107 -4.991072 6.198578 11.488814 
